inDegrees=no
num_controls=7
num_derivatives=13
num_iterations=44
num_multipliers=7
num_parameters=0
num_slacks=7
num_states=26
objective=0.555508
objective_accelerations=0.001878
objective_balance=0.006348
objective_effort=0.019620
objective_height=0.505128
objective_ligament=0.022534
solver_duration=483.380051
status=Solve_Succeeded
success=true
DataType=double
version=3
OpenSimVersion=4.5
endheader
time	/jointset/ground_pelvis/pelvis_tilt/value	/jointset/ground_pelvis/pelvis_tx/value	/jointset/ground_pelvis/pelvis_ty/value	/jointset/hip_r/hip_flexion_r/value	/jointset/hip_r/hip_adduction_r/value	/jointset/hip_r/hip_rotation_r/value	/jointset/back/lumbar_extension/value	/jointset/patellofemoral_r/patellar_flexion_r/value	/jointset/knee_r/knee_flexion_r/value	/jointset/knee_r/knee_adduction_r/value	/jointset/knee_r/knee_rotation_r/value	/jointset/ankle_r/ankle_angle_r/value	/jointset/subtalar_r/subtalar_angle_r/value	/jointset/ground_pelvis/pelvis_tilt/speed	/jointset/ground_pelvis/pelvis_tx/speed	/jointset/ground_pelvis/pelvis_ty/speed	/jointset/hip_r/hip_flexion_r/speed	/jointset/hip_r/hip_adduction_r/speed	/jointset/hip_r/hip_rotation_r/speed	/jointset/back/lumbar_extension/speed	/jointset/patellofemoral_r/patellar_flexion_r/speed	/jointset/knee_r/knee_flexion_r/speed	/jointset/knee_r/knee_adduction_r/speed	/jointset/knee_r/knee_rotation_r/speed	/jointset/ankle_r/ankle_angle_r/speed	/jointset/subtalar_r/subtalar_angle_r/speed	/forceset/tau_hip_flexion_r	/forceset/tau_hip_adduction_r	/forceset/tau_hip_rotation_r	/forceset/tau_knee_flexion_r	/forceset/tau_ankle_angle_r	/forceset/tau_subtalar_angle_r	/forceset/tau_lumbar_extension	lambda_cid13_p0	lambda_cid14_p0	lambda_cid14_p1	lambda_cid14_p2	lambda_cid14_p3	lambda_cid14_p4	lambda_cid14_p5	/jointset/ground_pelvis/pelvis_tilt/accel	/jointset/ground_pelvis/pelvis_tx/accel	/jointset/ground_pelvis/pelvis_ty/accel	/jointset/hip_r/hip_flexion_r/accel	/jointset/hip_r/hip_adduction_r/accel	/jointset/hip_r/hip_rotation_r/accel	/jointset/back/lumbar_extension/accel	/jointset/patellofemoral_r/patellar_flexion_r/accel	/jointset/knee_r/knee_flexion_r/accel	/jointset/knee_r/knee_adduction_r/accel	/jointset/knee_r/knee_rotation_r/accel	/jointset/ankle_r/ankle_angle_r/accel	/jointset/subtalar_r/subtalar_angle_r/accel	gamma_cid13_p0	gamma_cid14_p0	gamma_cid14_p1	gamma_cid14_p2	gamma_cid14_p3	gamma_cid14_p4	gamma_cid14_p5
1.5	-0.001433290408203822	0.1131748975306105	0.9499286202761824	0.1409816927183465	-0.1391154046545709	-0.0806521901698551	-0.007607562855013108	0.0199329264164762	0.01993292641643951	-0.01966898992240963	-0.04246569115855905	0.0516012329009811	0.1006864117687117	0.02597770632825284	-0.03960094707949147	0.002099473705843152	0.001926806810786475	0.003259394090876816	-0.01423051599964255	0.08960693873960655	-0.03318458524939419	-0.03318458524938948	-0.001317919536926796	0.01328625563354814	-0.0631030951102554	-0.01608670422828527	0.1116254612356413	-0.02180047458508493	0.02647043538731997	-0.1903131752824674	0.1472403451599638	-0.03622892123083345	-0.02777459025361679	-32.44803933695354	0.889318377138955	-20.80991198903479	9.753159757312616	6.614674189877256	-694.7695431548738	44.81311680269143	0.07882587469826868	-0.08664879873553061	-0.0004155336951863781	0.0494284911775839	-0.006020716978229101	0.01145185674879899	0.0160864562721265	0.05643935196657723	0.0564393519665772	0.009285808965936976	0.005618957004332337	-0.07483551874512562	-0.02937231632570731	3.324200755781723e-11	-3.214347516381445e-11	-1.092937971958973e-09	5.369167860527469e-10	1.951845433476504e-10	2.205749826359444e-10	-1.289281541660172e-09
1.51	-0.001169542914912726	0.1127745689488811	0.9499495970930327	0.141003355563688	-0.1390831206553118	-0.08079387850037752	-0.00671080974769805	0.01960385281505014	0.01960385281494716	-0.01968168773262283	-0.04233259783054235	0.05096645356080002	0.1005240643909176	0.02677110228694998	-0.04046381273102572	0.002095620774544996	0.002406217910334757	0.003196998915864278	-0.01410401691120905	0.08973529474656856	-0.03262838146495115	-0.03262838146495144	-0.001221354167636363	0.01332941914432258	-0.06385087584197781	-0.01638257982617672	0.1123110567216236	-0.02223153264606498	0.02646248673540774	-0.1913342367202599	0.1488636066604834	-0.0360284620357349	-0.02836017059872839	-32.4329173730343	1.417311554327736	-20.66979908360049	9.775819697101456	6.508768735969515	-694.7660474264518	45.07361265645682	0.07949296297782249	-0.08596192921621201	-0.0004103778111713791	0.04726578553552462	-0.006409895249627394	0.01371902327935421	0.009951977812267941	0.05547391856231807	0.05547391856169155	0.009885084089911084	0.003216538390958115	-0.07446475661127185	-0.02966658991625085	4.488401889103434e-11	1.844159101315079e-11	-1.246234794918666e-09	5.961013339210551e-10	2.006557015339739e-10	4.987812207124403e-10	-1.599754670955265e-09
1.52	-0.000897882160785871	0.1123656404144646	0.9499705273395775	0.1410298261932671	-0.1390514728032727	-0.08093420782237459	-0.005813024719342486	0.01928039385684852	0.01928039385680938	-0.01969341125246129	-0.04219916256911814	0.05032425333203332	0.100358763975466	0.02756035850662016	-0.04132093761690622	0.002090159644708961	0.002888363657575924	0.003132164641275627	-0.01395871428726381	0.08981332294975335	-0.03206165660532274	-0.03206165660532806	-0.001123061471216526	0.01335464226619264	-0.06458727282272871	-0.01667731175987594	0.1129966522080743	-0.02266259070681151	0.02645453808452668	-0.192355298157639	0.1504868681611694	-0.03582800284034419	-0.02894575094362994	-32.41805080903638	1.945350886402011	-20.52961297777482	9.798393585100778	6.40678727354185	-694.7591842970207	45.33442663743755	0.0779979268936266	-0.08550064560544041	-0.0007371734027387473	0.04997542071642522	-0.006508536893345454	0.01521256385113203	0.006020895517139998	0.05854356700418505	0.05854356700418381	0.009631274391582689	0.002030879223577932	-0.07255876855131306	-0.02914358348730289	5.933855402176252e-11	6.006529533717449e-11	-1.311735764329417e-09	6.650248895785483e-10	1.811912703635526e-10	5.486798840856782e-10	-1.75381367574036e-09
1.53	-0.0006183573897513503	0.1119481745328148	0.9499913945618337	0.141061133069377	-0.1390204821568252	-0.08107298471614263	-0.004914717014144759	0.01896265251305937	0.01896265251295208	-0.0197041504467344	-0.04206557204365882	0.04967475096077897	0.100190527140432	0.02834315025950605	-0.04217077441620867	0.002082977316028856	0.003373678692556162	0.003065954687845044	-0.01379365846215472	0.0898391367093823	-0.03148490225236687	-0.03148490225237136	-0.001025296670909773	0.01336041425678483	-0.06531071937729274	-0.0169692389729077	0.1137359379118208	-0.02311789299952316	0.02645184155082595	-0.1934888090131824	0.1522694011920498	-0.03562196745421965	-0.02956889110118063	-32.40344351440132	2.524721295318088	-20.38387723676084	9.826776014269692	6.270667099820331	-694.7591542005093	45.60598339852772	0.07820300121303804	-0.0845055321418705	-0.0007548355405391971	0.0479096319851288	-0.006678652417167646	0.01760312999197145	-0.0005005896866820741	0.0574978381860386	0.05749783818619832	0.009771140354016043	-0.0006067837788453958	-0.07186524875614851	-0.02909495635509666	7.67813956873462e-11	9.21675526924479e-11	-1.283953639344418e-09	7.442961410120502e-10	1.352327755015902e-10	3.56001749336707e-10	-1.741682673233582e-09
